<?xml version="1.0" standalone="no"?>
<!DOCTYPE svg PUBLIC "-//W3C//DTD SVG 20010904//EN"
 "http://www.w3.org/TR/2001/REC-SVG-20010904/DTD/svg10.dtd">
<svg version="1.0" xmlns="http://www.w3.org/2000/svg"
 width="281.000000pt" height="281.000000pt" viewBox="0 0 281.000000 281.000000"
 preserveAspectRatio="xMidYMid meet">
<metadata>
Created by potrace 1.11, written by Peter Selinger 2001-2013
</metadata>
<g transform="translate(0.000000,281.000000) scale(0.100000,-0.100000)"
fill="#000000" stroke="none">
<path d="M913 2795 c0 -8 4 -12 9 -9 5 3 6 10 3 15 -9 13 -12 11 -12 -6z"/>
<path d="M955 2800 c-3 -6 1 -7 9 -4 18 7 21 14 7 14 -6 0 -13 -4 -16 -10z"/>
<path d="M1050 2789 c0 -21 -82 -64 -106 -55 -8 3 -14 1 -14 -5 0 -6 -4 -7
-10 -4 -5 3 -10 2 -10 -4 0 -5 -24 -17 -52 -27 -49 -15 -106 -42 -118 -54 -6
-6 -38 -24 -100 -57 -25 -13 -62 -39 -83 -58 -21 -19 -41 -35 -46 -35 -13 0
-151 -141 -193 -197 -21 -29 -42 -53 -46 -53 -4 0 -16 -13 -25 -30 -10 -17
-15 -30 -12 -30 3 0 1 -6 -5 -12 -50 -58 -106 -172 -146 -298 -9 -30 -21 -60
-25 -66 -5 -6 -15 -42 -23 -80 -8 -38 -18 -85 -22 -104 -10 -44 -11 -385 -2
-425 4 -16 10 -47 13 -69 10 -61 11 -64 62 -201 49 -133 138 -296 202 -373 58
-70 218 -232 228 -232 5 0 24 -14 42 -32 31 -31 154 -108 172 -108 5 0 9 -3 9
-8 0 -11 188 -92 215 -92 7 0 26 -7 41 -15 31 -16 137 -41 219 -51 89 -12 325
-16 325 -5 0 5 7 8 16 7 9 -1 37 1 63 5 25 5 64 11 86 15 22 3 54 13 71 21 17
8 58 22 90 33 93 29 165 58 183 73 9 8 50 33 91 55 41 23 92 57 112 77 20 19
40 35 45 35 12 0 183 169 183 180 0 6 17 28 37 51 39 43 162 249 170 284 5 23
54 161 63 176 11 22 40 162 42 206 1 18 5 36 10 39 9 6 11 268 1 277 -3 4 -8
22 -9 39 -6 60 -13 103 -18 118 -3 8 -7 29 -10 47 -2 18 -11 42 -20 55 -9 12
-16 30 -16 39 0 31 -79 219 -92 219 -4 0 -8 5 -8 11 0 14 -74 139 -97 164 -10
11 -31 38 -47 60 -31 42 -155 165 -226 224 -43 36 -166 111 -181 111 -5 0 -9
4 -9 9 0 10 -66 39 -172 77 -40 14 -87 32 -105 40 -65 30 -213 48 -393 48 -96
0 -188 -3 -205 -6 -16 -3 -34 -3 -40 0 -5 4 -31 7 -57 8 -41 2 -48 0 -48 -17z
m40 -12 c11 -5 9 -6 -4 -4 -11 1 -21 9 -23 17 -3 10 -2 11 4 4 4 -6 15 -14 23
-17z m40 13 c0 -5 -4 -10 -10 -10 -5 0 -10 5 -10 10 0 6 5 10 10 10 6 0 10 -4
10 -10z"/>
<path d="M919 2763 c-13 -17 -13 -17 6 -3 11 8 22 16 24 17 2 2 0 3 -6 3 -6 0
-17 -8 -24 -17z"/>
<path d="M950 2760 c-13 -8 -12 -10 3 -10 9 0 17 5 17 10 0 12 -1 12 -20 0z"/>
<path d="M0 2590 c0 -13 5 -18 15 -14 8 4 15 10 15 14 0 4 -7 10 -15 14 -10 4
-15 -1 -15 -14z"/>
<path d="M2800 177 c0 -18 -68 -117 -102 -150 l-29 -27 70 0 71 0 0 95 c0 52
-2 95 -5 95 -3 0 -5 -6 -5 -13z"/>
</g>
</svg>
